<svg width="411" height="848" viewBox="0 0 411 848" fill="none" xmlns="http://www.w3.org/2000/svg">
<path fill-rule="evenodd" clip-rule="evenodd" d="M393 58C393 35.9 375.1 18 353 18H315.5C312.186 18 309.5 20.6863 309.5 24V27C309.5 39.2 299.7 49 287.5 49H123.5C111.3 49 101.5 39.2 101.5 27V24C101.5 20.6863 98.8137 18 95.5 18H58C35.9 18 18 35.9 18 58V790C18 812.1 35.9 830 58 830H353C375.1 830 393 812.1 393 790V58ZM58 0H353C385 0 411 26 411 58V790C411 822 385 848 353 848H58C26 848 0 822 0 790V58C0 26 26 0 58 0Z" fill="#1E1E1E"/>
<g opacity="0.2">
<path d="M257.5 27C257.5 30.866 254.366 34 250.5 34C246.634 34 243.5 30.866 243.5 27C243.5 23.134 246.634 20 250.5 20C254.366 20 257.5 23.134 257.5 27Z" fill="white"/>
<path d="M183 24C181.343 24 180 25.3431 180 27C180 28.6569 181.343 30 183 30H227C228.657 30 230 28.6569 230 27C230 25.3431 228.657 24 227 24H183Z" fill="white"/>
</g>
</svg>
